<svg width="19" height="4" viewBox="0 0 19 4" fill="none" xmlns="http://www.w3.org/2000/svg">
<path d="M0.882812 2.09229C0.882812 1.61377 1.05143 1.20589 1.38867 0.868652C1.73047 0.531413 2.13835 0.362793 2.6123 0.362793C3.09082 0.362793 3.4987 0.531413 3.83594 0.868652C4.17773 1.20589 4.34863 1.61377 4.34863 2.09229C4.34863 2.5708 4.17773 2.98096 3.83594 3.32275C3.4987 3.65999 3.09082 3.82861 2.6123 3.82861C2.13835 3.82861 1.73047 3.65999 1.38867 3.32275C1.05143 2.98096 0.882812 2.5708 0.882812 2.09229ZM7.79102 2.09229C7.79102 1.61377 7.95964 1.20589 8.29688 0.868652C8.63867 0.531413 9.04655 0.362793 9.52051 0.362793C9.99902 0.362793 10.4069 0.531413 10.7441 0.868652C11.0859 1.20589 11.2568 1.61377 11.2568 2.09229C11.2568 2.5708 11.0859 2.98096 10.7441 3.32275C10.4069 3.65999 9.99902 3.82861 9.52051 3.82861C9.04655 3.82861 8.63867 3.65999 8.29688 3.32275C7.95964 2.98096 7.79102 2.5708 7.79102 2.09229ZM14.6992 2.09229C14.6992 1.61377 14.8678 1.20589 15.2051 0.868652C15.5469 0.531413 15.9548 0.362793 16.4287 0.362793C16.9072 0.362793 17.3151 0.531413 17.6523 0.868652C17.9941 1.20589 18.165 1.61377 18.165 2.09229C18.165 2.5708 17.9941 2.98096 17.6523 3.32275C17.3151 3.65999 16.9072 3.82861 16.4287 3.82861C15.9548 3.82861 15.5469 3.65999 15.2051 3.32275C14.8678 2.98096 14.6992 2.5708 14.6992 2.09229Z" fill="black" fill-opacity="0.25"/>
</svg>
