<svg width="165" height="161" viewBox="0 0 165 161" fill="none" xmlns="http://www.w3.org/2000/svg">
<path d="M16.2179 124.52C15.6064 123.652 14.7817 122.959 13.8245 122.509C12.8883 122.068 11.8664 121.841 10.8327 121.846C9.69806 121.837 8.57618 122.088 7.55167 122.58C6.56428 123.071 5.68309 123.755 4.95881 124.591C4.22371 125.433 3.64896 126.404 3.26344 127.456C2.86205 128.547 2.65609 129.701 2.65512 130.865C2.64675 132.069 2.85278 133.264 3.26344 134.394C3.64487 135.437 4.2165 136.399 4.94882 137.23C5.66992 138.035 6.54514 138.685 7.52179 139.14C8.60054 139.618 9.76793 139.858 10.946 139.844C12.1241 139.83 13.2856 139.563 14.353 139.06C15.4204 138.544 16.3606 137.795 17.1055 136.868L19.0102 138.487C18.1129 139.733 16.9103 140.724 15.5198 141.362C14.0571 141.988 12.4813 142.3 10.8925 142.277C9.41739 142.287 7.9555 141.996 6.59434 141.423C5.28649 140.871 4.10213 140.06 3.11182 139.038C2.12151 138.015 1.34551 136.802 0.830111 135.47C-0.276704 132.557 -0.276704 129.334 0.830111 126.421C1.32866 125.079 2.09095 123.854 3.07122 122.817C4.05149 121.78 5.22953 120.954 6.5345 120.388C7.92081 119.79 9.41485 119.489 10.9224 119.503C12.3587 119.503 13.7824 119.772 15.1209 120.297C16.4635 120.831 17.6335 121.729 18.5017 122.891L16.2179 124.52Z" fill="#3E9757"/>
<path d="M34.7474 142.237C33.2071 142.252 31.679 141.962 30.2497 141.383C28.9251 140.836 27.7216 140.03 26.7094 139.01C25.6968 137.982 24.9028 136.757 24.3758 135.41C23.2774 132.495 23.2774 129.275 24.3758 126.36C24.9028 125.013 25.6968 123.788 26.7094 122.761C27.7216 121.741 28.9251 120.934 30.2497 120.388C33.1357 119.254 36.3391 119.254 39.2251 120.388C40.5527 120.934 41.7594 121.741 42.7754 122.761C43.7881 123.786 44.5793 125.012 45.099 126.36C46.2106 129.273 46.2106 132.498 45.099 135.41C44.5793 136.759 43.7881 137.984 42.7754 139.01C41.7594 140.03 40.5527 140.836 39.2251 141.383C37.8023 141.96 36.281 142.25 34.7474 142.237ZM34.7474 139.854C35.8932 139.872 37.03 139.648 38.0846 139.196C39.1392 138.744 40.0882 138.074 40.8706 137.23C41.6268 136.4 42.2161 135.43 42.6059 134.374C43.4532 132.106 43.4532 129.604 42.6059 127.336C42.2161 126.28 41.6268 125.31 40.8706 124.48C40.1141 123.664 39.2016 123.011 38.188 122.56C37.1011 122.095 35.9328 121.856 34.7524 121.856C33.572 121.856 32.4036 122.095 31.3168 122.56C30.3018 123.008 29.3888 123.662 28.6341 124.48C27.8783 125.312 27.2861 126.281 26.8889 127.336C26.055 129.607 26.055 132.103 26.8889 134.374C27.2861 135.429 27.8783 136.398 28.6341 137.23C29.3888 138.048 30.3018 138.702 31.3168 139.15C32.3949 139.64 33.5649 139.891 34.7474 139.884V139.854Z" fill="#3E9757"/>
<path d="M52.3188 120.066H56.0985L63.3686 137.009H63.4284L70.7583 120.066H74.4582V141.685H71.955V123.586H71.8952L64.2062 141.685H62.6605L54.9715 123.586H54.9117V141.685H52.3687L52.3188 120.066Z" fill="#3E9757"/>
<path d="M82.0574 120.066H88.4199C89.3682 120.064 90.3141 120.161 91.2422 120.358C92.097 120.534 92.9097 120.875 93.6356 121.363C94.3338 121.823 94.9064 122.452 95.301 123.193C95.7448 124.066 95.961 125.038 95.9293 126.019C95.965 127.039 95.7346 128.052 95.2612 128.955C94.8432 129.694 94.2549 130.322 93.5459 130.785C92.8454 131.232 92.0724 131.552 91.2621 131.73C90.4861 131.905 89.6938 131.996 88.8986 132.001H84.6004V141.714H82.0574V120.066ZM84.6004 129.598H88.9086C90.0086 129.649 91.0957 129.342 92.0101 128.723C92.386 128.382 92.6866 127.965 92.8923 127.499C93.098 127.033 93.2044 126.529 93.2044 126.019C93.2044 125.508 93.098 125.004 92.8923 124.538C92.6866 124.072 92.386 123.655 92.0101 123.314C91.0925 122.703 90.007 122.4 88.9086 122.449H84.6104L84.6004 129.598Z" fill="#3E9757"/>
<path d="M107.009 120.066H109.402L118.517 141.685H115.525L113.351 136.376H102.651L100.437 141.685H97.5647L107.009 120.066ZM108.156 123.364H108.096L103.648 133.993H112.404L108.156 123.364Z" fill="#3E9757"/>
<path d="M123.633 120.066H126.805L139.221 138.025H139.28V120.066H141.823V141.685H138.622L126.196 123.726H126.137V141.685H123.594L123.633 120.066Z" fill="#3E9757"/>
<path d="M154.529 132.374L146.551 120.066H149.742L155.725 129.84L161.938 120.066H165L157.022 132.374V141.685H154.529V132.374Z" fill="#3E9757"/>
<path d="M52.3788 152.152C52.1573 151.843 51.8669 151.592 51.5311 151.417C51.1495 151.219 50.7238 151.122 50.2945 151.136C50.0381 151.138 49.7831 151.175 49.5366 151.247C49.2848 151.321 49.0483 151.44 48.8385 151.599C48.628 151.76 48.4545 151.966 48.3299 152.202C48.194 152.462 48.1254 152.752 48.1304 153.046C48.122 153.327 48.1874 153.604 48.3199 153.851C48.4443 154.064 48.6106 154.248 48.8085 154.394C49.0245 154.547 49.2591 154.672 49.5066 154.766L50.3244 155.047C50.6834 155.168 51.0325 155.289 51.3915 155.429C51.7494 155.549 52.0861 155.726 52.3887 155.952C52.6797 156.171 52.9183 156.453 53.0868 156.777C53.281 157.166 53.3736 157.598 53.3561 158.034C53.3703 158.49 53.2708 158.943 53.0669 159.351C52.888 159.708 52.6325 160.021 52.3189 160.266C52.0025 160.508 51.644 160.689 51.2618 160.799C50.8581 160.926 50.4382 160.994 50.0152 161C49.7072 161 49.4 160.969 49.0978 160.909C48.7993 160.848 48.5084 160.753 48.2302 160.628C47.9532 160.502 47.6921 160.343 47.4523 160.155C47.2229 159.954 47.0126 159.732 46.824 159.492L47.7116 158.828C47.9452 159.202 48.2629 159.516 48.639 159.743C49.0586 159.991 49.5387 160.117 50.0252 160.105C50.2922 160.104 50.5576 160.063 50.813 159.984C51.0745 159.91 51.3187 159.783 51.5311 159.612C51.7509 159.446 51.9314 159.234 52.0596 158.989C52.197 158.72 52.2686 158.422 52.2686 158.119C52.2686 157.817 52.197 157.518 52.0596 157.249C51.926 157.011 51.738 156.807 51.5111 156.656C51.2687 156.488 51.0033 156.356 50.7233 156.264C50.4341 156.153 50.125 156.053 49.7959 155.942C49.4566 155.842 49.1235 155.721 48.7986 155.58C48.4794 155.456 48.1828 155.279 47.921 155.057C47.6621 154.839 47.4514 154.569 47.3027 154.263C47.1332 153.899 47.0512 153.499 47.0633 153.097C47.0509 152.655 47.1542 152.218 47.3625 151.83C47.5457 151.481 47.8048 151.178 48.1204 150.945C48.4381 150.718 48.7924 150.548 49.1676 150.442C49.5349 150.34 49.9136 150.286 50.2945 150.281C50.9002 150.267 51.5008 150.395 52.0496 150.653C52.4793 150.848 52.8557 151.145 53.1467 151.518L52.3788 152.152Z" fill="#92E3A9"/>
<path d="M59.4195 159.793H64.1365V160.708H58.3923V150.513H59.3896L59.4195 159.793Z" fill="#92E3A9"/>
<path d="M78.0982 155.61C78.1085 156.347 77.973 157.079 77.6994 157.762C77.4522 158.397 77.075 158.973 76.5924 159.451C76.1145 159.929 75.5488 160.308 74.9269 160.568C73.5815 161.104 72.084 161.104 70.7385 160.568C70.1167 160.308 69.5509 159.929 69.073 159.451C68.5904 158.973 68.2132 158.397 67.9661 157.762C67.4205 156.384 67.4205 154.847 67.9661 153.469C68.2164 152.832 68.5931 152.254 69.073 151.769C69.5509 151.292 70.1167 150.913 70.7385 150.653C72.084 150.117 73.5815 150.117 74.9269 150.653C75.5488 150.913 76.1145 151.292 76.5924 151.769C77.0723 152.254 77.449 152.832 77.6994 153.469C77.9719 154.149 78.1075 154.877 78.0982 155.61ZM77.0212 155.61C77.0226 155.031 76.9247 154.457 76.732 153.911C76.5477 153.39 76.2669 152.909 75.9043 152.493C75.5358 152.069 75.0842 151.727 74.5779 151.488C74.0295 151.24 73.4337 151.116 72.8327 151.126C72.2285 151.116 71.6295 151.24 71.0775 151.488C70.574 151.727 70.1255 152.069 69.7611 152.493C69.4037 152.926 69.1328 153.425 68.9633 153.961C68.5778 155.061 68.5778 156.26 68.9633 157.36C69.1453 157.879 69.4266 158.358 69.7911 158.768C70.1555 159.192 70.6039 159.534 71.1075 159.773C71.6616 160.013 72.2596 160.133 72.8626 160.125C73.4624 160.133 74.0572 160.013 74.6078 159.773C75.114 159.534 75.5657 159.192 75.9342 158.768C76.2987 158.358 76.5799 157.879 76.7619 157.36C76.9491 156.8 77.0369 156.211 77.0212 155.621V155.61Z" fill="#92E3A9"/>
<path d="M90.7735 152.353C90.4211 151.977 89.9925 151.682 89.5169 151.488C88.9853 151.27 88.4152 151.164 87.8415 151.176C87.2405 151.167 86.6448 151.29 86.0963 151.538C85.5915 151.78 85.1404 152.122 84.7699 152.544C84.4002 152.957 84.1125 153.439 83.9223 153.961C83.5233 155.058 83.5233 156.263 83.9223 157.36C84.1 157.884 84.3831 158.365 84.7538 158.773C85.1244 159.181 85.5747 159.508 86.0763 159.733C86.627 159.973 87.2217 160.093 87.8215 160.085C88.3522 160.09 88.8814 160.029 89.3972 159.904C89.804 159.805 90.1939 159.646 90.5541 159.431V156.324H88.2005V155.409H91.5813V159.994C91.0243 160.329 90.4234 160.583 89.7962 160.748C89.1438 160.912 88.4738 160.993 87.8016 160.99C87.0774 160.998 86.3588 160.862 85.6874 160.588C85.0605 160.337 84.4915 159.958 84.0162 159.475C83.5409 158.992 83.1694 158.416 82.925 157.782C82.6562 157.097 82.5207 156.367 82.5261 155.63C82.52 154.896 82.659 154.168 82.935 153.489C83.1853 152.852 83.562 152.274 84.0419 151.789C84.5198 151.312 85.0855 150.933 85.7073 150.673C86.3734 150.405 87.0844 150.269 87.8016 150.271C88.5238 150.254 89.2423 150.38 89.9158 150.643C90.4935 150.869 91.0195 151.211 91.4616 151.649L90.7735 152.353Z" fill="#92E3A9"/>
<path d="M97.0163 160.708H95.8894L100.257 150.513H101.255L105.603 160.708H104.456L103.349 158.034H98.1133L97.0163 160.708ZM98.5022 157.079H102.96L100.726 151.669L98.5022 157.079Z" fill="#92E3A9"/>
<path d="M117.111 159.2V150.513H118.109V160.708H116.822L110.938 151.94V160.708H109.941V150.513H111.227L117.111 159.2Z" fill="#92E3A9"/>
<path d="M104.965 51.5315C106.744 50.9832 108.653 51.0362 110.4 51.6824C111.058 51.9539 111.706 52.2656 112.394 52.6074C113.082 52.9493 113.641 53.3314 114.259 53.7437C115.505 54.5939 116.658 55.5746 117.7 56.6696C119.94 59.084 121.622 61.9684 122.626 65.1158C123.769 68.7234 124.139 72.5343 123.713 76.2969C123.219 80.5424 121.886 84.645 119.794 88.3629C118.484 90.6502 116.466 92.4411 114.05 93.4607C113.493 93.684 112.919 93.8622 112.334 93.9936C111.784 94.1161 111.223 94.1802 110.659 94.1847C109.623 94.2174 108.594 93.9894 107.667 93.5211C106.893 93.1073 106.243 92.4915 105.785 91.7381C105.327 90.9846 105.078 90.1211 105.064 89.2376C105.01 87.306 105.585 85.4096 106.7 83.8381C108.094 81.7147 109.085 79.3485 109.622 76.86C110.121 74.5458 110.176 72.1563 109.781 69.8215C109.692 69.2685 109.552 68.7054 109.412 68.1725C109.343 67.9111 109.263 67.6497 109.183 67.3882C109.103 67.1268 108.994 66.8553 108.894 66.6039C108.708 66.0967 108.495 65.6 108.256 65.1158C108.006 64.6332 107.747 64.1706 107.478 63.7182C106.378 61.9584 104.985 60.4037 103.359 59.123C102.25 58.3277 101.386 57.2335 100.866 55.9658C100.693 55.4913 100.672 54.974 100.806 54.4868C100.94 53.9997 101.223 53.5675 101.614 53.251C102.043 52.8404 102.535 52.501 103.07 52.2455C103.675 51.941 104.31 51.7017 104.965 51.5315Z" fill="#7DB59A"/>
<path d="M93.4063 70.9675C94.7715 72.2424 95.6826 73.9349 95.9991 75.7838C96.099 76.5004 96.1589 77.2222 96.1786 77.9456C96.2185 78.6791 96.2185 79.4142 96.1786 80.1477C96.1188 80.8817 96.0291 81.6257 95.8994 82.3698C95.7659 83.1234 95.5894 83.8688 95.3709 84.602C94.4259 87.7686 92.7903 90.6819 90.584 93.1286C88.0552 95.9181 84.9736 98.1413 81.5388 99.6542C77.6422 101.378 73.4376 102.281 69.1827 102.309C66.5489 102.316 63.9865 101.446 61.8926 99.8352C60.9959 99.198 60.2447 98.375 59.6892 97.4212C59.1336 96.4674 58.7866 95.405 58.6715 94.305C58.6432 93.4221 58.8504 92.5478 59.2714 91.7732C59.6923 90.9986 60.3117 90.352 61.065 89.9009C61.8343 89.4202 62.6817 89.0798 63.5681 88.8954C64.5491 88.6736 65.5573 88.5991 66.5599 88.6742C69.0821 88.8453 71.6135 88.5314 74.0194 87.7492C75.1541 87.3796 76.2524 86.9049 77.3004 86.3314C77.819 86.0298 78.2977 85.7181 78.7863 85.3963C79.2565 85.0866 79.7093 84.7509 80.1427 84.3908C80.9907 83.6766 81.7688 82.882 82.4662 82.0179C82.8053 81.5956 83.1244 81.1431 83.4635 80.7007C83.8026 80.2582 84.032 79.8158 84.2813 79.3332C85.244 77.4935 85.885 75.5002 86.1761 73.4409C86.2765 72.6789 86.4708 71.9324 86.7545 71.2188C86.8741 70.9179 87.0141 70.6257 87.1734 70.3441C87.2432 70.2234 87.3229 70.1027 87.4027 69.9921L87.652 69.6703C87.978 69.2899 88.4125 69.02 88.8961 68.8977C89.3798 68.7753 89.8891 68.8064 90.3547 68.9866C90.6262 69.0659 90.8899 69.1702 91.1425 69.2983C91.4187 69.4298 91.6853 69.5811 91.9403 69.7508C92.4672 70.107 92.9583 70.5145 93.4063 70.9675Z" fill="#92E3A9"/>
<path d="M70.9578 70.5956C70.5353 72.422 69.5341 74.0598 68.1057 75.2611C65.7665 77.0831 63.0714 78.3854 60.1974 79.082C57.005 79.8298 53.6881 79.8573 50.4839 79.1624C46.8167 78.3562 43.3602 76.7764 40.3418 74.5271C36.9155 71.9749 34.0414 68.7452 31.8949 65.0352C30.5674 62.7411 30.0374 60.0659 30.3891 57.4337C30.3891 57.132 30.4788 56.8304 30.5386 56.5388C30.5985 56.2472 30.6982 55.9556 30.7879 55.674C30.9663 55.1396 31.1899 54.6215 31.4561 54.1256C31.9548 53.2213 32.6631 52.4519 33.5205 51.8833C34.2654 51.4166 35.1206 51.1594 35.9973 51.1381C36.8741 51.1169 37.7406 51.3325 38.5068 51.7627C39.3122 52.1761 40.0355 52.7351 40.6409 53.4117C40.9783 53.7634 41.2853 54.1435 41.5585 54.5479C41.8351 54.9759 42.0881 55.419 42.3164 55.8752C43.4261 58.1561 44.9557 60.2034 46.824 61.9081C48.5708 63.4989 50.6013 64.7409 52.8076 65.5682C53.8409 65.9724 54.9092 66.2787 55.9988 66.4831C57.0536 66.6548 58.1224 66.7222 59.1901 66.6842C60.2268 66.646 61.258 66.5147 62.2716 66.2921C63.2687 66.0678 64.2459 65.7618 65.1936 65.3771C65.9008 65.0852 66.6411 64.8826 67.3976 64.7738C67.7279 64.7275 68.0614 64.7074 68.3948 64.7134C68.6697 64.7165 68.9436 64.7468 69.2126 64.804C69.7099 64.8915 70.1682 65.1316 70.5252 65.4915C70.8821 65.8514 71.1203 66.3136 71.2071 66.815C71.4238 68.0772 71.3383 69.3734 70.9578 70.5956Z" fill="#7DB59A"/>
<path d="M60.0576 50.7774C58.2794 51.3355 56.3676 51.2824 54.6225 50.6265C53.9643 50.3551 53.3161 50.0434 52.628 49.7015C51.9873 49.3555 51.3648 48.9762 50.7631 48.5653C49.5171 47.7151 48.3638 46.7343 47.3225 45.6393C45.0844 43.2273 43.4022 40.3466 42.396 37.2032C41.2556 33.5917 40.8818 29.7787 41.299 26.012C41.7953 21.767 43.1278 17.6647 45.2183 13.9461C46.5324 11.6561 48.5532 9.8623 50.9725 8.83814C51.528 8.61351 52.1019 8.43859 52.6878 8.31532C53.2336 8.18469 53.7923 8.11721 54.3532 8.11421C55.3904 8.08542 56.4185 8.3169 57.345 8.78787C58.1214 9.19913 58.7731 9.8143 59.2313 10.5683C59.6895 11.3223 59.9371 12.1871 59.9479 13.0713C59.9956 15.002 59.4218 16.8964 58.3124 18.4708C56.9084 20.5854 55.9168 22.9502 55.3904 25.4389C54.8927 27.7531 54.8351 30.1415 55.2208 32.4774C55.3206 33.0404 55.4602 33.5935 55.5998 34.1264C55.6696 34.3979 55.7494 34.6593 55.8292 34.9207C55.909 35.1821 56.0087 35.4436 56.1084 35.695C56.3079 36.2078 56.5173 36.7004 56.7567 37.1831C56.996 37.6657 57.2652 38.1383 57.5345 38.5807C58.6311 40.3429 60.0251 41.898 61.6532 43.1758C62.7631 43.9743 63.6272 45.072 64.1464 46.3431C64.3184 46.8186 64.3377 47.3366 64.2017 47.8238C64.0657 48.311 63.7812 48.7427 63.3884 49.058C62.9581 49.463 62.4709 49.8018 61.9425 50.0635C61.3411 50.3682 60.7092 50.6075 60.0576 50.7774Z" fill="#92E3A9"/>
<path d="M71.606 31.3514C70.2467 30.0718 69.3367 28.3815 69.0131 26.5351C68.9134 25.8111 68.8635 25.1072 68.8336 24.3732C68.8037 23.6392 68.8336 22.8951 68.8336 22.1611C68.8336 21.4271 68.9832 20.6931 69.1129 19.939C69.2453 19.1884 69.4218 18.4464 69.6414 17.7168C70.5885 14.5482 72.2237 11.632 74.4283 9.18018C76.9514 6.3886 80.0301 4.165 83.4635 2.65452C87.3636 0.93115 91.5714 0.0278918 95.8296 0C98.4586 0.00359132 101.015 0.872077 103.11 2.47354C104.008 3.10932 104.76 3.93198 105.316 4.88602C105.871 5.84007 106.218 6.90328 106.331 8.00377C106.362 8.8873 106.157 9.76301 105.738 10.5395C105.319 11.316 104.7 11.9647 103.947 12.4178C103.172 12.8868 102.327 13.2264 101.444 13.4233C100.463 13.6406 99.4546 13.7118 98.4524 13.6345C95.9336 13.4679 93.4062 13.7817 91.0028 14.5596C89.8637 14.9301 88.7619 15.4082 87.7118 15.9874C87.2032 16.279 86.7146 16.5907 86.2359 16.9124C85.7658 17.2221 85.313 17.5578 84.8796 17.9179C84.0291 18.6294 83.2507 19.4243 82.556 20.2909C82.2169 20.7132 81.8978 21.1657 81.5587 21.6081C81.2614 22.0519 80.9884 22.5117 80.741 22.9856C79.7719 24.8226 79.1305 26.817 78.8461 28.8778C78.7432 29.6394 78.549 30.3856 78.2678 31.1C78.1502 31.3986 78.0101 31.6876 77.8489 31.9647C77.7772 32.0874 77.6973 32.2051 77.6095 32.3167C77.532 32.4282 77.4488 32.5356 77.3602 32.6384C77.0371 33.0198 76.6049 33.2911 76.1229 33.4153C75.6409 33.5395 75.1326 33.5105 74.6676 33.3322C74.3958 33.2493 74.1321 33.1416 73.8798 33.0104C73.6056 32.8785 73.3393 32.7308 73.082 32.568C72.5559 32.2064 72.0621 31.7993 71.606 31.3514Z" fill="#7DB59A"/>
<path d="M94.0546 31.7233C94.4744 29.8958 95.4762 28.2571 96.9069 27.0578C99.2595 25.2295 101.973 23.9301 104.865 23.247C108.056 22.4905 111.374 22.4596 114.578 23.1565C118.248 23.9553 121.707 25.5282 124.731 27.7717C128.155 30.3303 131.028 33.5629 133.177 37.2737C134.505 39.5641 135.035 42.2361 134.683 44.8651C134.646 45.1695 134.593 45.4716 134.524 45.7701C134.454 46.0617 134.374 46.3533 134.284 46.6248C134.105 47.1637 133.878 47.6853 133.606 48.1833C133.111 49.0844 132.406 49.8506 131.552 50.4155C130.808 50.8837 129.953 51.1428 129.076 51.1658C128.2 51.1887 127.333 50.9748 126.566 50.5462C125.762 50.1256 125.039 49.5638 124.431 48.8871C124.096 48.5298 123.79 48.1465 123.514 47.7408C123.234 47.313 122.978 46.8699 122.746 46.4136C121.641 44.1326 120.114 42.0851 118.248 40.3806C116.504 38.7893 114.472 37.5502 112.265 36.7306C110.215 35.9823 108.041 35.6409 105.862 35.7252C104.826 35.7634 103.794 35.8947 102.781 36.1173C101.784 36.3383 100.807 36.6409 99.8587 37.0223C99.1481 37.3143 98.4046 37.5169 97.6448 37.6256C97.3142 37.6703 96.9811 37.6939 96.6476 37.6959C96.3697 37.6873 96.093 37.6571 95.8198 37.6055C95.3214 37.5207 94.8615 37.2815 94.5041 36.9211C94.1467 36.5607 93.9094 36.097 93.8253 35.5945C93.5875 34.3046 93.6662 32.9755 94.0546 31.7233Z" fill="#92E3A9"/>
</svg>
