<svg width="40" height="40" viewBox="0 0 40 40" fill="none" xmlns="http://www.w3.org/2000/svg">
<path d="M29.2104 23.8901C28.5742 25.3946 27.5792 26.7203 26.3123 27.7514C25.0454 28.7825 23.5452 29.4875 21.9428 29.8049C20.3405 30.1222 18.6848 30.0422 17.1205 29.5719C15.5563 29.1015 14.131 28.2551 12.9694 27.1067C11.8078 25.9583 10.9452 24.5428 10.457 22.984C9.96886 21.4252 9.86996 19.7706 10.169 18.1647C10.468 16.5589 11.1559 15.0507 12.1724 13.7721C13.189 12.4935 14.5033 11.4834 16.0004 10.8301" stroke="white" stroke-width="2" stroke-linecap="round" stroke-linejoin="round"/>
<path d="M30.0005 20C30.0005 18.6868 29.7418 17.3864 29.2393 16.1732C28.7367 14.9599 28.0001 13.8575 27.0716 12.9289C26.143 12.0003 25.0406 11.2638 23.8273 10.7612C22.6141 10.2587 21.3137 10 20.0005 10V20H30.0005Z" stroke="white" stroke-width="2" stroke-linecap="round" stroke-linejoin="round"/>
</svg>
