<svg width="7" height="12" viewBox="0 0 7 12" fill="none" xmlns="http://www.w3.org/2000/svg">
<path d="M6.83938 2.06694V1.03168C6.83938 0.941944 6.73625 0.89239 6.66661 0.947301L0.629107 5.66293C0.57781 5.70282 0.536302 5.7539 0.50775 5.81227C0.479198 5.87065 0.464355 5.93477 0.464355 5.99976C0.464355 6.06474 0.479198 6.12886 0.50775 6.18724C0.536302 6.24561 0.57781 6.29669 0.629107 6.33659L6.66661 11.0522C6.73759 11.1071 6.83938 11.0576 6.83938 10.9678V9.93257C6.83938 9.86694 6.80857 9.804 6.75768 9.76382L1.93625 6.00043L6.75768 2.23569C6.80857 2.19551 6.83938 2.13257 6.83938 2.06694V2.06694Z" fill="#D9D9D9"/>
</svg>
