<svg width="7" height="12" viewBox="0 0 7 12" fill="none" xmlns="http://www.w3.org/2000/svg">
<path d="M6.39777 5.6633L0.360269 0.947677C0.344493 0.935257 0.325533 0.927538 0.305568 0.925407C0.285603 0.923277 0.265441 0.92682 0.247399 0.935632C0.229357 0.944443 0.214166 0.958164 0.203571 0.97522C0.192976 0.992275 0.187406 1.01197 0.187501 1.03205V2.06732C0.187501 2.13294 0.218305 2.19589 0.269198 2.23607L5.09063 6.0008L0.269198 9.76553C0.216966 9.80571 0.187501 9.86866 0.187501 9.93428V10.9696C0.187501 11.0593 0.290626 11.1088 0.360269 11.0539L6.39777 6.3383C6.44908 6.29827 6.4906 6.24707 6.51915 6.18859C6.5477 6.13011 6.56254 6.06588 6.56254 6.0008C6.56254 5.93572 6.5477 5.8715 6.51915 5.81301C6.4906 5.75453 6.44908 5.70333 6.39777 5.6633Z" fill="black" fill-opacity="0.85"/>
</svg>
